<svg width="423" height="101" viewBox="0 0 423 101" fill="none" xmlns="http://www.w3.org/2000/svg">
<circle cx="50.5" cy="50.5" r="50.5" fill="#BF2D2D"/>
<ellipse cx="54.7083" cy="48.3958" rx="44.8889" ry="46.9931" fill="#F24242"/>
<path d="M13 85.6804L52.5 49L78.5 8.68039" stroke="white" stroke-dasharray="2 2"/>
<path d="M18 87.6804L57.5 51L83.5 10.6804" stroke="white" stroke-dasharray="2 2"/>
<path d="M25.1 17H41.3C46.7667 17 50.8667 18.4667 53.6 21.4C56.3333 24.3333 57.7 28.6333 57.7 34.3V41.2C57.7 46.8667 56.3333 51.1667 53.6 54.1C50.8667 57.0333 46.7667 58.5 41.3 58.5H36.1V87H25.1V17ZM41.3 48.5C43.1 48.5 44.4333 48 45.3 47C46.2333 46 46.7 44.3 46.7 41.9V33.6C46.7 31.2 46.2333 29.5 45.3 28.5C44.4333 27.5 43.1 27 41.3 27H36.1V48.5H41.3ZM77.0742 88C71.6742 88 67.5409 86.4667 64.6742 83.4C61.8076 80.3333 60.3742 76 60.3742 70.4V33.6C60.3742 28 61.8076 23.6667 64.6742 20.6C67.5409 17.5333 71.6742 16 77.0742 16C82.4742 16 86.6076 17.5333 89.4742 20.6C92.3409 23.6667 93.7742 28 93.7742 33.6V70.4C93.7742 76 92.3409 80.3333 89.4742 83.4C86.6076 86.4667 82.4742 88 77.0742 88ZM77.0742 78C80.8742 78 82.7742 75.7 82.7742 71.1V32.9C82.7742 28.3 80.8742 26 77.0742 26C73.2742 26 71.3742 28.3 71.3742 32.9V71.1C71.3742 75.7 73.2742 78 77.0742 78Z" fill="white"/>
<path d="M96.1133 17H106.713L111.613 70.8H111.813L117.013 17H129.013L134.213 70.8H134.413L139.313 17H148.813L141.713 87H128.013L123.013 39.8H122.813L117.813 87H103.213L96.1133 17ZM151.877 17H181.877V27H162.877V45.5H177.977V55.5H162.877V77H181.877V87H151.877V17ZM185.705 17H202.005C207.672 17 211.805 18.3333 214.405 21C217.005 23.6 218.305 27.6333 218.305 33.1V37.4C218.305 44.6667 215.905 49.2667 211.105 51.2V51.4C213.772 52.2 215.639 53.8333 216.705 56.3C217.839 58.7667 218.405 62.0667 218.405 66.2V78.5C218.405 80.5 218.472 82.1333 218.605 83.4C218.739 84.6 219.072 85.8 219.605 87H208.405C208.005 85.8667 207.739 84.8 207.605 83.8C207.472 82.8 207.405 81 207.405 78.4V65.6C207.405 62.4 206.872 60.1667 205.805 58.9C204.805 57.6333 203.039 57 200.505 57H196.705V87H185.705V17ZM200.705 47C202.905 47 204.539 46.4333 205.605 45.3C206.739 44.1667 207.305 42.2667 207.305 39.6V34.2C207.305 31.6667 206.839 29.8333 205.905 28.7C205.039 27.5667 203.639 27 201.705 27H196.705V47H200.705ZM223.538 17H239.738C245.204 17 249.304 18.4667 252.038 21.4C254.771 24.3333 256.138 28.6333 256.138 34.3V41.2C256.138 46.8667 254.771 51.1667 252.038 54.1C249.304 57.0333 245.204 58.5 239.738 58.5H234.538V87H223.538V17ZM239.738 48.5C241.538 48.5 242.871 48 243.738 47C244.671 46 245.137 44.3 245.137 41.9V33.6C245.137 31.2 244.671 29.5 243.738 28.5C242.871 27.5 241.538 27 239.738 27H234.538V48.5H239.738ZM259.612 17H270.612V77H288.712V87H259.612V17ZM300.377 17H315.277L326.677 87H315.677L313.677 73.1V73.3H301.177L299.177 87H288.977L300.377 17ZM312.377 63.8L307.477 29.2H307.277L302.477 63.8H312.377ZM335.024 57.2L321.724 17H333.424L340.924 42.7H341.124L348.624 17H359.324L346.024 57.2V87H335.024V57.2Z" fill="#F24242"/>
</svg>
